<svg width="30" height="30" viewBox="0 0 30 30" fill="none" xmlns="http://www.w3.org/2000/svg">
<path d="M17.1429 4.6875C17.1429 3.65039 16.1853 2.8125 15 2.8125C13.8147 2.8125 12.8572 3.65039 12.8572 4.6875V13.125H3.2143C2.02903 13.125 1.07144 13.9629 1.07144 15C1.07144 16.0371 2.02903 16.875 3.2143 16.875H12.8572V25.3125C12.8572 26.3496 13.8147 27.1875 15 27.1875C16.1853 27.1875 17.1429 26.3496 17.1429 25.3125V16.875H26.7857C27.971 16.875 28.9286 16.0371 28.9286 15C28.9286 13.9629 27.971 13.125 26.7857 13.125H17.1429V4.6875Z" fill="#BC87E8"/>
</svg>
