<svg width="24" height="24" viewBox="0 0 24 24" fill="none" xmlns="http://www.w3.org/2000/svg">
<g id="coment" clip-path="url(#clip0_7_45)">
<path id="Vector" d="M5.79375 18.3422C6.39844 17.9016 7.18125 17.7891 7.88438 18.0422C9.12657 18.4922 10.5188 18.75 12 18.75C17.8453 18.75 21.75 14.9766 21.75 11.25C21.75 7.52344 17.8453 3.75 12 3.75C6.15469 3.75 2.25 7.52344 2.25 11.25C2.25 12.75 2.83125 14.1938 3.92344 15.4313C4.32657 15.8859 4.52344 16.4859 4.47657 17.0953C4.41094 17.9438 4.20938 18.7219 3.94688 19.4109C4.74375 19.0406 5.40469 18.6281 5.79375 18.3469V18.3422ZM0.993755 20.2453C1.07813 20.1187 1.15782 19.9922 1.23282 19.8656C1.70157 19.0875 2.14688 18.0656 2.23594 16.9172C0.829692 15.3187 4.58444e-06 13.3641 4.58444e-06 11.25C4.58444e-06 5.86406 5.37188 1.5 12 1.5C18.6281 1.5 24 5.86406 24 11.25C24 16.6359 18.6281 21 12 21C10.2609 21 8.61094 20.7 7.12032 20.1609C6.5625 20.5688 5.65313 21.1266 4.575 21.5953C3.86719 21.9047 3.06094 22.1859 2.22657 22.35C2.18907 22.3594 2.15157 22.3641 2.11407 22.3734C1.90782 22.4109 1.70625 22.4438 1.49532 22.4625C1.48594 22.4625 1.47188 22.4672 1.4625 22.4672C1.22344 22.4906 0.98438 22.5047 0.745317 22.5047C0.44063 22.5047 0.168755 22.3219 0.0515671 22.0406C-0.0656204 21.7594 4.57466e-06 21.4406 0.210942 21.225C0.40313 21.0281 0.576567 20.8172 0.74063 20.5922C0.820317 20.4844 0.895317 20.3766 0.96563 20.2687C0.970317 20.2594 0.975005 20.2547 0.979692 20.2453H0.993755Z" fill="#FF9E1F"/>
</g>
<defs>
<clipPath id="clip0_7_45">
<rect width="24" height="24" fill="white"/>
</clipPath>
</defs>
</svg>