<svg width="31" height="30" viewBox="0 0 31 30" fill="none" xmlns="http://www.w3.org/2000/svg">
<g clip-path="url(#clip0_7_58)">
<path d="M15.5 15C17.8491 15 20.1019 14.2098 21.7629 12.8033C23.424 11.3968 24.3571 9.48912 24.3571 7.5C24.3571 5.51088 23.424 3.60322 21.7629 2.1967C20.1019 0.790176 17.8491 0 15.5 0C13.1509 0 10.8981 0.790176 9.23705 2.1967C7.57602 3.60322 6.64286 5.51088 6.64286 7.5C6.64286 9.48912 7.57602 11.3968 9.23705 12.8033C10.8981 14.2098 13.1509 15 15.5 15ZM12.3377 17.8125C5.52187 17.8125 0 22.4883 0 28.2598C0 29.2207 0.920313 30 2.05513 30H28.9449C30.0797 30 31 29.2207 31 28.2598C31 22.4883 25.4781 17.8125 18.6623 17.8125H12.3377Z" fill="#BC87E8"/>
</g>
<defs>
<clipPath id="clip0_7_58">
<rect width="31" height="30" fill="white"/>
</clipPath>
</defs>
</svg>
