<svg width="31" height="30" viewBox="0 0 31 30" fill="none" xmlns="http://www.w3.org/2000/svg">
<g clip-path="url(#clip0_7_54)">
<path d="M25.1875 12.1875C25.1875 14.877 24.2854 17.3613 22.7656 19.377L30.4309 26.8008C31.1877 27.5332 31.1877 28.7227 30.4309 29.4551C29.674 30.1875 28.4449 30.1875 27.6881 29.4551L20.0229 22.0312C17.94 23.5078 15.3729 24.375 12.5938 24.375C5.63691 24.375 0 18.9199 0 12.1875C0 5.45508 5.63691 0 12.5938 0C19.5506 0 25.1875 5.45508 25.1875 12.1875ZM12.5938 20.625C13.7387 20.625 14.8725 20.4068 15.9303 19.9827C16.9881 19.5587 17.9492 18.9372 18.7588 18.1537C19.5684 17.3702 20.2107 16.4401 20.6488 15.4164C21.087 14.3927 21.3125 13.2955 21.3125 12.1875C21.3125 11.0795 21.087 9.98229 20.6488 8.95861C20.2107 7.93492 19.5684 7.00478 18.7588 6.22129C17.9492 5.43779 16.9881 4.81629 15.9303 4.39227C14.8725 3.96824 13.7387 3.75 12.5938 3.75C11.4488 3.75 10.315 3.96824 9.25723 4.39227C8.19942 4.81629 7.23827 5.43779 6.42866 6.22129C5.61905 7.00478 4.97683 7.93492 4.53867 8.95861C4.10052 9.98229 3.875 11.0795 3.875 12.1875C3.875 13.2955 4.10052 14.3927 4.53867 15.4164C4.97683 16.4401 5.61905 17.3702 6.42866 18.1537C7.23827 18.9372 8.19942 19.5587 9.25723 19.9827C10.315 20.4068 11.4488 20.625 12.5938 20.625Z" fill="#BC87E8"/>
</g>
<defs>
<clipPath id="clip0_7_54">
<rect width="31" height="30" fill="white"/>
</clipPath>
</defs>
</svg>
